<svg viewBox="0 0 400 430" fill="none" xmlns="http://www.w3.org/2000/svg">
  <path
    d="M272.27 379.429C268.738 379.429 265.863 382.304 265.863 385.833C265.863 385.843 265.863 385.852 265.863 385.861L247.461 395.853C246.451 395.188 245.246 394.801 243.952 394.801C240.42 394.801 237.546 397.676 237.546 401.208C237.546 404.74 240.42 407.612 243.952 407.612C247.484 407.612 250.356 404.737 250.356 401.208C250.356 401.198 250.356 401.189 250.356 401.18L268.759 391.188C269.768 391.852 270.974 392.239 272.267 392.239C275.799 392.239 278.671 389.365 278.671 385.833C278.674 382.301 275.801 379.429 272.27 379.429ZM243.954 404.15C242.332 404.15 241.012 402.83 241.012 401.208C241.012 399.585 242.332 398.266 243.954 398.266C245.577 398.266 246.896 399.585 246.896 401.208C246.894 402.83 245.575 404.15 243.954 404.15ZM272.27 388.775C270.647 388.775 269.328 387.456 269.328 385.833C269.328 384.211 270.647 382.891 272.27 382.891C273.892 382.891 275.212 384.211 275.212 385.833C275.212 387.456 273.892 388.775 272.27 388.775Z"
    fill="#000" />
  <path
    d="M396.626 314.244V117.76C398.633 116.678 400 114.555 400 112.119C400 108.587 397.125 105.712 393.596 105.712C390.064 105.712 387.189 108.587 387.189 112.119C387.189 114.555 388.556 116.676 390.563 117.76V314.244C388.556 315.325 387.189 317.449 387.189 319.885C387.189 323.417 390.064 326.291 393.596 326.291C397.128 326.291 400 323.417 400 319.885C400 317.449 398.633 315.328 396.626 314.244ZM393.596 109.179C395.218 109.179 396.538 110.498 396.538 112.121C396.538 113.743 395.218 115.063 393.596 115.063C391.973 115.063 390.654 113.743 390.654 112.121C390.654 110.498 391.973 109.179 393.596 109.179ZM393.596 322.827C391.973 322.827 390.654 321.508 390.654 319.885C390.654 318.263 391.973 316.943 393.596 316.943C395.218 316.943 396.538 318.263 396.538 319.885C396.535 321.508 395.216 322.827 393.596 322.827Z"
    fill="#000" />
  <path
    d="M381.333 293.209V109.88C383.341 108.799 384.707 106.675 384.707 104.239C384.707 100.707 381.832 97.8326 378.3 97.8326C374.769 97.8326 371.896 100.707 371.896 104.239C371.896 106.675 373.263 108.796 375.27 109.88V293.211C373.263 294.293 371.896 296.417 371.896 298.853C371.896 302.384 374.771 305.257 378.3 305.257C381.832 305.257 384.707 302.382 384.707 298.853C384.709 296.414 383.341 294.293 381.333 293.209ZM378.303 101.297C379.925 101.297 381.245 102.616 381.245 104.239C381.245 105.861 379.925 107.181 378.303 107.181C376.68 107.181 375.361 105.861 375.361 104.239C375.361 102.616 376.683 101.297 378.303 101.297ZM378.303 301.792C376.68 301.792 375.361 300.473 375.361 298.85C375.361 297.228 376.68 295.908 378.303 295.908C379.925 295.908 381.245 297.228 381.245 298.85C381.245 300.473 379.925 301.792 378.303 301.792Z"
    fill="#000" />
  <path
    d="M9.43917 313.445V165.043C11.4464 163.961 12.8125 161.838 12.8125 159.401C12.8125 155.87 9.93806 152.995 6.40624 152.995C2.87442 152.995 0 155.87 0 159.401C0 161.838 1.3661 163.959 3.3733 165.043V313.445C1.3661 314.526 0 316.65 0 319.086C0 322.618 2.87442 325.49 6.40624 325.49C9.93806 325.49 12.8125 322.616 12.8125 319.086C12.8125 316.65 11.4464 314.529 9.43917 313.445ZM6.40857 156.462C8.03111 156.462 9.35058 157.781 9.35058 159.404C9.35058 161.026 8.03111 162.346 6.40857 162.346C4.78603 162.346 3.46655 161.026 3.46655 159.404C3.46655 157.781 4.78603 156.462 6.40857 156.462ZM6.40857 322.028C4.78603 322.028 3.46655 320.709 3.46655 319.086C3.46655 317.464 4.78603 316.144 6.40857 316.144C8.03111 316.144 9.35058 317.464 9.35058 319.086C9.34825 320.709 8.02877 322.028 6.40857 322.028Z"
    fill="#000" />
  <path
    d="M153.413 357.96C152.117 357.96 150.912 358.347 149.905 359.012L24.6008 290.977V224.224C26.608 223.142 27.9741 221.019 27.9741 218.583C27.9741 215.051 25.0997 212.179 21.5679 212.179C18.036 212.179 15.1616 215.053 15.1616 218.583C15.1616 221.019 16.5277 223.14 18.5349 224.224V294.583L147.007 364.338C147.007 364.348 147.007 364.357 147.007 364.366C147.007 367.898 149.881 370.773 153.413 370.773C156.945 370.773 159.819 367.898 159.819 364.366C159.819 360.832 156.945 357.96 153.413 357.96ZM21.5679 215.641C23.1904 215.641 24.5099 216.96 24.5099 218.583C24.5099 220.205 23.1904 221.525 21.5679 221.525C19.9453 221.525 18.6258 220.205 18.6258 218.583C18.6282 216.96 19.9476 215.641 21.5679 215.641ZM153.413 367.306C151.791 367.306 150.471 365.987 150.471 364.364C150.471 362.742 151.791 361.422 153.413 361.422C155.036 361.422 156.355 362.742 156.355 364.364C156.355 365.987 155.036 367.306 153.413 367.306Z"
    fill="#000" />
  <path
    d="M66.5475 184.236C65.2513 184.236 64.0461 184.623 63.039 185.287L33.7517 169.386V278.742C31.7445 279.824 30.3784 281.947 30.3784 284.384C30.3784 287.915 33.2528 290.79 36.7846 290.79C40.3165 290.79 43.1909 287.915 43.1909 284.384C43.1909 281.947 41.8248 279.826 39.8176 278.742V179.576L60.1483 190.614C60.1483 190.624 60.1483 190.633 60.1483 190.642C60.1483 194.174 63.0227 197.049 66.5545 197.049C70.0863 197.049 72.9607 194.174 72.9607 190.642C72.9537 187.11 70.0793 184.236 66.5475 184.236ZM36.7823 287.323C35.1598 287.323 33.8403 286.004 33.8403 284.381C33.8403 282.759 35.1598 281.439 36.7823 281.439C38.4049 281.439 39.7243 282.759 39.7243 284.381C39.7243 286.004 38.4049 287.323 36.7823 287.323ZM66.5475 193.582C64.925 193.582 63.6055 192.263 63.6055 190.64C63.6055 189.017 64.925 187.698 66.5475 187.698C68.1701 187.698 69.4895 189.017 69.4895 190.64C69.4895 192.263 68.1701 193.582 66.5475 193.582Z"
    fill="#000" />
  <path
    d="M346.961 228.872C343.429 228.872 340.557 231.746 340.557 235.278C340.557 237.714 341.923 239.835 343.93 240.919V343.718L329.579 351.508C328.57 350.844 327.365 350.457 326.071 350.457C322.539 350.457 319.665 353.332 319.665 356.863C319.665 360.395 322.539 363.27 326.071 363.27C329.603 363.27 332.475 360.395 332.475 356.863C332.475 356.854 332.475 356.845 332.475 356.835L349.992 347.324V240.919C351.999 239.838 353.365 237.714 353.365 235.278C353.367 231.746 350.493 228.872 346.961 228.872ZM326.071 359.803C324.448 359.803 323.129 358.484 323.129 356.861C323.129 355.238 324.448 353.919 326.071 353.919C327.693 353.919 329.013 355.238 329.013 356.861C329.013 358.484 327.693 359.803 326.071 359.803ZM346.961 238.217C345.338 238.217 344.019 236.898 344.019 235.275C344.019 233.653 345.338 232.333 346.961 232.333C348.584 232.333 349.903 233.653 349.903 235.275C349.903 236.898 348.584 238.217 346.961 238.217Z"
    fill="#000" />
  <path
    d="M363.646 89.7222C362.35 89.7222 361.145 90.1092 360.138 90.7736L346.136 83.1715C346.136 83.1621 346.136 83.1528 346.136 83.1435C346.136 79.6117 343.262 76.7373 339.73 76.7373C336.198 76.7373 333.326 79.6117 333.326 83.1435C333.326 86.6753 336.201 89.5497 339.73 89.5497C341.026 89.5497 342.231 89.1627 343.239 88.4983L357.24 96.1005C357.24 96.1098 357.24 96.1191 357.24 96.1285C357.24 99.6603 360.114 102.535 363.646 102.535C367.178 102.535 370.05 99.6603 370.05 96.1285C370.05 92.5966 367.178 89.7222 363.646 89.7222ZM339.73 86.0832C338.108 86.0832 336.788 84.7637 336.788 83.1412C336.788 81.5186 338.108 80.1991 339.73 80.1991C341.353 80.1991 342.672 81.5186 342.672 83.1412C342.672 84.7637 341.353 86.0832 339.73 86.0832ZM363.646 99.0682C362.024 99.0682 360.704 97.7487 360.704 96.1261C360.704 94.5036 362.024 93.1841 363.646 93.1841C365.269 93.1841 366.588 94.5036 366.588 96.1261C366.588 97.7487 365.269 99.0682 363.646 99.0682Z"
    fill="#000" />
  <path
    d="M265.658 35.379C264.365 35.379 263.157 35.766 262.15 36.4304L242.162 25.5785V167.742C240.155 168.823 238.789 170.947 238.789 173.383C238.789 176.915 241.663 179.79 245.192 179.79C248.724 179.79 251.599 176.915 251.599 173.383C251.599 170.947 250.233 168.826 248.225 167.742V35.766L259.257 41.7573C259.257 41.7666 259.257 41.7759 259.257 41.7852C259.257 45.3171 262.131 48.1915 265.661 48.1915C269.193 48.1915 272.067 45.3171 272.067 41.7852C272.067 38.2534 269.19 35.379 265.658 35.379ZM245.19 176.323C243.568 176.323 242.248 175.004 242.248 173.381C242.248 171.758 243.568 170.439 245.19 170.439C246.813 170.439 248.132 171.758 248.132 173.381C248.132 175.004 246.813 176.323 245.19 176.323ZM265.658 44.7273C264.036 44.7273 262.716 43.4078 262.716 41.7852C262.716 40.1627 264.036 38.8432 265.658 38.8432C267.281 38.8432 268.6 40.1627 268.6 41.7852C268.6 43.4078 267.281 44.7273 265.658 44.7273Z"
    fill="#000" />
  <path
    d="M248.517 380.191V213.508H227.428V291.886C226.985 292.124 226.568 292.418 226.183 292.761C224.91 293.903 224.157 295.472 224.064 297.181C223.873 300.708 226.584 303.734 230.111 303.925C230.23 303.932 230.349 303.934 230.468 303.934C232.046 303.934 233.55 303.361 234.737 302.298C236.012 301.155 236.762 299.586 236.856 297.878C236.949 296.169 236.371 294.528 235.228 293.252C234.725 292.691 234.137 292.229 233.489 291.882V219.567H242.453V380.189C240.446 381.27 239.08 383.394 239.08 385.83C239.08 389.362 241.954 392.237 245.484 392.237C249.015 392.237 251.89 389.362 251.89 385.83C251.89 383.397 250.524 381.275 248.517 380.191ZM233.396 297.691C233.354 298.477 233.007 299.197 232.422 299.722C231.837 300.246 231.084 300.512 230.298 300.468C228.678 300.379 227.433 298.99 227.521 297.369C227.563 296.584 227.911 295.863 228.496 295.339C229.039 294.852 229.731 294.588 230.456 294.588C230.51 294.588 230.566 294.591 230.62 294.593C232.24 294.681 233.485 296.071 233.396 297.691ZM245.486 388.775C243.863 388.775 242.544 387.455 242.544 385.833C242.544 384.21 243.863 382.891 245.486 382.891C247.108 382.891 248.428 384.21 248.428 385.833C248.428 387.455 247.108 388.775 245.486 388.775Z"
    fill="#000" />
  <path
    d="M218.201 310.656V240.948C218.663 240.705 219.099 240.405 219.498 240.046C220.77 238.903 221.523 237.334 221.617 235.626C221.71 233.917 221.132 232.276 219.99 231C218.847 229.725 217.278 228.975 215.57 228.881C213.863 228.788 212.22 229.366 210.944 230.509C209.669 231.651 208.919 233.22 208.825 234.929C208.732 236.637 209.31 238.279 210.452 239.554C210.944 240.102 211.513 240.551 212.14 240.896V316.72H227.431V409.482L218.201 414.492V336.169C220.209 335.088 221.575 332.964 221.575 330.528C221.575 326.996 218.7 324.122 215.171 324.122C211.639 324.122 208.765 326.996 208.765 330.528C208.765 332.964 210.131 335.085 212.138 336.169V424.679L233.49 413.086V310.656H218.201V310.656ZM218.157 235.437C218.115 236.222 217.768 236.943 217.183 237.467C216.598 237.992 215.845 238.258 215.059 238.213C214.273 238.171 213.553 237.824 213.028 237.239C212.504 236.654 212.238 235.901 212.282 235.115C212.324 234.329 212.672 233.609 213.257 233.085C213.8 232.597 214.492 232.334 215.217 232.334C215.271 232.334 215.327 232.336 215.381 232.339C216.999 232.429 218.246 233.819 218.157 235.437ZM215.169 327.588C216.791 327.588 218.111 328.908 218.111 330.53C218.111 332.153 216.791 333.472 215.169 333.472C213.546 333.472 212.227 332.153 212.227 330.53C212.229 328.908 213.548 327.588 215.169 327.588Z"
    fill="#000" />
  <path
    d="M157.379 341.226V278.989H136.028V333.473L55.2854 289.634V204.469C57.2926 203.387 58.6587 201.264 58.6587 198.828C58.6587 195.296 55.7842 192.421 52.2524 192.421C48.7206 192.421 45.8462 195.296 45.8462 198.828C45.8462 201.264 47.2123 203.385 49.2195 204.469V293.24L142.084 343.663V285.051H151.314V341.229C149.306 342.31 147.94 344.434 147.94 346.87C147.94 350.402 150.815 353.277 154.347 353.277C157.878 353.277 160.753 350.402 160.753 346.87C160.755 344.432 159.387 342.31 157.379 341.226ZM52.2548 195.886C53.8773 195.886 55.1968 197.205 55.1968 198.828C55.1968 200.45 53.8773 201.77 52.2548 201.77C50.6322 201.77 49.3127 200.45 49.3127 198.828C49.3127 197.205 50.6322 195.886 52.2548 195.886ZM154.349 349.81C152.726 349.81 151.407 348.491 151.407 346.868C151.407 345.245 152.726 343.926 154.349 343.926C155.971 343.926 157.291 345.245 157.291 346.868C157.291 348.491 155.971 349.81 154.349 349.81Z"
    fill="#000" />
  <path
    d="M299.866 179.337C297.429 179.337 295.308 180.703 294.224 182.711H203.066V12.0478C205.073 10.9661 206.439 8.84238 206.439 6.40624C206.439 2.87442 203.565 0 200.033 0C196.501 0 193.626 2.87442 193.626 6.40624C193.626 8.84238 194.993 10.9638 197 12.0478V188.772H294.222C295.303 190.779 297.427 192.145 299.863 192.145C303.395 192.145 306.267 189.271 306.267 185.739C306.272 182.209 303.397 179.337 299.866 179.337ZM200.035 9.34826C198.412 9.34826 197.093 8.02878 197.093 6.40624C197.093 4.7837 198.412 3.46421 200.035 3.46421C201.658 3.46421 202.977 4.7837 202.977 6.40624C202.977 8.02878 201.658 9.34826 200.035 9.34826ZM299.866 188.683C298.243 188.683 296.924 187.364 296.924 185.741C296.924 184.119 298.243 182.799 299.866 182.799C301.488 182.799 302.808 184.119 302.808 185.741C302.808 187.364 301.488 188.683 299.866 188.683Z"
    fill="#000" />
  <path
    d="M199.982 210.134C196.451 210.134 193.576 213.009 193.576 216.538C193.576 218.974 194.942 221.096 196.949 222.18V419.428L93.2632 363.131C93.2632 363.122 93.2632 363.112 93.2632 363.103C93.2632 359.571 90.3887 356.699 86.8569 356.699C83.3251 356.699 80.4507 359.574 80.4507 363.103C80.4507 366.635 83.3251 369.509 86.8569 369.509C88.1531 369.509 89.3583 369.122 90.3654 368.458L203.008 429.618V222.18C205.016 221.098 206.382 218.974 206.382 216.538C206.386 213.009 203.514 210.134 199.982 210.134ZM86.8616 366.045C85.239 366.045 83.9196 364.726 83.9196 363.103C83.9196 361.481 85.239 360.161 86.8616 360.161C88.4841 360.161 89.8036 361.481 89.8036 363.103C89.8013 364.726 88.4818 366.045 86.8616 366.045ZM199.982 219.48C198.36 219.48 197.04 218.161 197.04 216.538C197.04 214.916 198.36 213.596 199.982 213.596C201.605 213.596 202.924 214.916 202.924 216.538C202.922 218.161 201.603 219.48 199.982 219.48Z"
    fill="#000" />
  <path
    d="M233.49 135.355V20.8704L212.138 9.27718V167.738C210.131 168.82 208.765 170.944 208.765 173.38C208.765 176.912 211.639 179.786 215.171 179.786C218.703 179.786 221.575 176.912 221.575 173.38C221.575 170.944 220.209 168.822 218.201 167.738V19.467L227.431 24.4768V135.355C225.424 136.437 224.058 138.56 224.058 140.997C224.058 144.528 226.932 147.403 230.461 147.403C233.993 147.403 236.868 144.528 236.868 140.997C236.865 138.558 235.497 136.437 233.49 135.355ZM215.169 176.322C213.546 176.322 212.227 175.002 212.227 173.38C212.227 171.757 213.546 170.438 215.169 170.438C216.791 170.438 218.111 171.757 218.111 173.38C218.111 175.002 216.791 176.322 215.169 176.322ZM230.459 143.936C228.837 143.936 227.517 142.617 227.517 140.994C227.517 139.372 228.837 138.052 230.459 138.052C232.082 138.052 233.401 139.372 233.401 140.994C233.401 142.617 232.082 143.936 230.459 143.936Z"
    fill="#000" />
  <path
    d="M42.6035 127.139V113.236L136.025 62.5196V73.6L93.1027 96.9007C92.0932 96.2363 90.888 95.8493 89.5918 95.8493C86.06 95.8493 83.1856 98.7237 83.1856 102.256C83.1856 105.787 86.06 108.662 89.5918 108.662C93.1236 108.662 95.9981 105.787 95.9981 102.256C95.9981 102.246 95.9981 102.237 95.9981 102.228L142.087 77.2064V52.3322L36.5422 109.632V127.142C34.535 128.223 33.1689 130.347 33.1689 132.783C33.1689 136.315 36.0434 139.189 39.5752 139.189C43.107 139.189 45.9814 136.315 45.9814 132.783C45.9767 130.345 44.6106 128.221 42.6035 127.139ZM89.5942 105.195C87.9716 105.195 86.6521 103.876 86.6521 102.253C86.6521 100.631 87.9716 99.3112 89.5942 99.3112C91.2167 99.3112 92.5362 100.631 92.5362 102.253C92.5362 103.876 91.2144 105.195 89.5942 105.195ZM39.5728 135.72C37.9503 135.72 36.6308 134.401 36.6308 132.778C36.6308 131.156 37.9503 129.836 39.5728 129.836C41.1954 129.836 42.5149 131.156 42.5149 132.778C42.5149 134.401 41.1954 135.72 39.5728 135.72Z"
    fill="#000" />
  <path
    d="M139.056 86.4992C135.524 86.4992 132.65 89.3736 132.65 92.9054C132.65 92.9147 132.65 92.9241 132.65 92.9334L85.0133 118.794C84.0038 118.129 82.7986 117.742 81.5024 117.742C77.9706 117.742 75.0962 120.617 75.0962 124.149C75.0962 127.68 77.9706 130.555 81.5024 130.555C85.0342 130.555 87.9087 127.68 87.9087 124.149C87.9087 124.139 87.9087 124.13 87.9087 124.121L135.545 98.2603C136.555 98.9247 137.76 99.3116 139.056 99.3116C142.588 99.3116 145.462 96.4372 145.462 92.9054C145.462 89.3736 142.588 86.4992 139.056 86.4992ZM81.5071 127.088C79.8845 127.088 78.5651 125.769 78.5651 124.146C78.5651 122.524 79.8845 121.204 81.5071 121.204C83.1296 121.204 84.4491 122.524 84.4491 124.146C84.4491 125.769 83.1273 127.088 81.5071 127.088ZM139.056 95.8474C137.433 95.8474 136.114 94.528 136.114 92.9054C136.114 91.2829 137.433 89.9634 139.056 89.9634C140.679 89.9634 141.998 91.2829 141.998 92.9054C141.998 94.528 140.679 95.8474 139.056 95.8474Z"
    fill="#000" />
  <path
    d="M157.378 106.832V26.9102L28.4557 96.9009C27.4462 96.2365 26.241 95.8495 24.9448 95.8495C21.413 95.8495 18.5386 98.7239 18.5386 102.256C18.5386 105.788 21.413 108.662 24.9448 108.662C28.4766 108.662 31.351 105.788 31.351 102.256C31.351 102.246 31.351 102.237 31.351 102.228L151.316 37.1001V106.834C149.309 107.916 147.943 110.04 147.943 112.476C147.943 116.008 150.818 118.882 154.349 118.882C157.881 118.882 160.756 116.008 160.756 112.476C160.753 110.037 159.385 107.916 157.378 106.832ZM24.9471 105.195C23.3246 105.195 22.0051 103.876 22.0051 102.253C22.0051 100.631 23.3246 99.3114 24.9471 99.3114C26.5697 99.3114 27.8892 100.631 27.8892 102.253C27.8892 103.876 26.5697 105.195 24.9471 105.195ZM154.347 115.416C152.724 115.416 151.405 114.096 151.405 112.474C151.405 110.851 152.724 109.532 154.347 109.532C155.97 109.532 157.289 110.851 157.289 112.474C157.289 114.096 155.97 115.416 154.347 115.416Z"
    fill="#000" />
  <path
    d="M184.667 34.7849C181.136 34.7849 178.261 37.6593 178.261 41.1911C178.261 43.6273 179.627 45.7487 181.634 46.8327V393.639L25.831 309.045C25.831 309.036 25.831 309.027 25.831 309.017C25.831 305.486 22.9566 302.613 19.4248 302.613C15.893 302.613 13.0186 305.488 13.0186 309.017C13.0186 312.549 15.893 315.424 19.4248 315.424C20.721 315.424 21.9262 315.037 22.9333 314.372L187.693 403.829V46.8304C189.701 45.7487 191.067 43.6249 191.067 41.1888C191.071 37.657 188.199 34.7849 184.667 34.7849ZM19.4295 311.955C17.8069 311.955 16.4874 310.635 16.4874 309.013C16.4874 307.39 17.8069 306.071 19.4295 306.071C21.052 306.071 22.3715 307.39 22.3715 309.013C22.3715 310.635 21.052 311.955 19.4295 311.955ZM184.667 44.1308C183.045 44.1308 181.725 42.8113 181.725 41.1888C181.725 39.5663 183.045 38.2468 184.667 38.2468C186.29 38.2468 187.609 39.5663 187.609 41.1888C187.609 42.8113 186.29 44.1308 184.667 44.1308Z"
    fill="#000" />
  <path
    d="M172.466 364.894V264.912H172.368V264.907H136.364C135.362 262.674 133.119 261.114 130.518 261.114C126.986 261.114 124.111 263.989 124.111 267.521C124.111 271.052 126.986 273.925 130.518 273.925C132.779 273.925 134.77 272.745 135.91 270.969H166.402V364.892C164.395 365.973 163.027 368.097 163.027 370.533C163.027 374.065 165.901 376.939 169.433 376.939C172.965 376.939 175.839 374.065 175.839 370.533C175.839 368.099 174.473 365.978 172.466 364.894ZM130.518 270.46C128.895 270.46 127.576 269.141 127.576 267.518C127.576 265.896 128.895 264.576 130.518 264.576C132.14 264.576 133.46 265.896 133.46 267.518C133.46 269.141 132.14 270.46 130.518 270.46ZM169.433 373.475C167.81 373.475 166.491 372.156 166.491 370.533C166.491 368.911 167.81 367.591 169.433 367.591C171.055 367.591 172.375 368.911 172.375 370.533C172.375 372.156 171.055 373.475 169.433 373.475Z"
    fill="#000" />
  <path
    d="M169.43 17.8095C165.898 17.8095 163.024 20.6839 163.024 24.2157C163.024 26.6518 164.39 28.7733 166.397 29.8573V249.527H157.373V132.991C159.38 131.909 160.746 129.786 160.746 127.35C160.746 123.818 157.872 120.943 154.34 120.943C150.808 120.943 147.934 123.818 147.934 127.35C147.934 129.786 149.3 131.907 151.307 132.991V252.558H151.321V255.588H172.412V252.558H172.456V29.855C174.463 28.7733 175.829 26.6495 175.829 24.2134C175.836 20.6815 172.962 17.8095 169.43 17.8095ZM169.43 21.2713C171.052 21.2713 172.372 22.5908 172.372 24.2134C172.372 25.8359 171.052 27.1554 169.43 27.1554C167.807 27.1554 166.488 25.8359 166.488 24.2134C166.488 22.5908 167.81 21.2713 169.43 21.2713ZM154.344 124.408C155.967 124.408 157.287 125.727 157.287 127.35C157.287 128.972 155.967 130.292 154.344 130.292C152.722 130.292 151.402 128.972 151.402 127.35C151.402 125.727 152.722 124.408 154.344 124.408Z"
    fill="#000" />
  <path
    d="M365.373 119.031C362.315 117.266 358.389 118.318 356.624 121.376C355.768 122.859 355.542 124.584 355.985 126.237C356.428 127.89 357.489 129.27 358.969 130.125C359.025 130.158 359.083 130.186 359.142 130.216V197.782H214.554C214.316 197.339 214.022 196.922 213.68 196.538C212.537 195.265 210.968 194.512 209.26 194.418C205.732 194.227 202.707 196.939 202.515 200.466C202.324 203.993 205.035 207.019 208.563 207.21C208.682 207.217 208.8 207.219 208.919 207.219C210.498 207.219 212.001 206.646 213.188 205.583C213.75 205.079 214.211 204.492 214.559 203.844H365.205V130.214C366.222 129.671 367.105 128.848 367.721 127.78C369.483 124.722 368.432 120.796 365.373 119.031ZM211.847 200.974C211.805 201.759 211.458 202.48 210.873 203.004C210.288 203.529 209.535 203.795 208.749 203.75C207.129 203.662 205.884 202.272 205.973 200.652C206.059 199.088 207.357 197.871 208.908 197.871C208.961 197.871 209.015 197.873 209.068 197.876C209.854 197.918 210.574 198.265 211.099 198.85C211.624 199.435 211.889 200.188 211.847 200.974ZM364.718 126.048C363.907 127.454 362.105 127.936 360.699 127.125C360.018 126.731 359.531 126.097 359.328 125.339C359.125 124.579 359.228 123.787 359.622 123.108C360.165 122.166 361.156 121.637 362.175 121.637C362.674 121.637 363.179 121.763 363.641 122.031C365.047 122.84 365.529 124.645 364.718 126.048Z"
    fill="#000" />
  <path
    d="M350.165 100.167C348.682 99.3115 346.957 99.0854 345.304 99.5283C343.652 99.9712 342.271 101.032 341.416 102.512C340.56 103.995 340.334 105.72 340.775 107.373C341.218 109.026 342.278 110.406 343.759 111.261C343.815 111.294 343.873 111.322 343.931 111.352V182.709H334.138C333.056 180.702 330.932 179.336 328.496 179.336C324.964 179.336 322.092 182.21 322.092 185.742C322.092 189.274 324.967 192.148 328.496 192.148C330.932 192.148 333.054 190.782 334.138 188.775H349.992V111.359C351.035 110.802 351.904 109.968 352.508 108.919C354.275 105.858 353.224 101.934 350.165 100.167ZM328.499 188.684C326.876 188.684 325.556 187.365 325.556 185.742C325.556 184.12 326.876 182.8 328.499 182.8C330.121 182.8 331.441 184.12 331.441 185.742C331.441 187.365 330.119 188.684 328.499 188.684ZM349.51 107.186C349.116 107.867 348.482 108.354 347.724 108.557C346.964 108.76 346.172 108.655 345.493 108.263C344.812 107.872 344.325 107.235 344.122 106.478C343.92 105.718 344.025 104.925 344.416 104.247C344.81 103.566 345.444 103.079 346.202 102.876C346.456 102.808 346.712 102.773 346.969 102.773C347.479 102.773 347.981 102.906 348.435 103.17C349.839 103.979 350.321 105.781 349.51 107.186Z"
    fill="#000" />
  <path
    d="M365.2 331.769V213.508H276.704C275.622 211.5 273.498 210.134 271.062 210.134C267.53 210.134 264.656 213.009 264.656 216.538C264.656 220.07 267.53 222.945 271.062 222.945C273.498 222.945 275.62 221.578 276.704 219.571H359.138V331.771C357.131 332.853 355.765 334.977 355.765 337.413C355.765 340.945 358.639 343.819 362.171 343.819C365.703 343.819 368.575 340.945 368.575 337.413C368.575 334.974 367.207 332.853 365.2 331.769ZM271.064 219.48C269.442 219.48 268.122 218.161 268.122 216.538C268.122 214.916 269.442 213.596 271.064 213.596C272.687 213.596 274.006 214.916 274.006 216.538C274.004 218.161 272.685 219.48 271.064 219.48ZM362.169 340.353C360.546 340.353 359.227 339.033 359.227 337.411C359.227 335.788 360.546 334.468 362.169 334.468C363.791 334.468 365.111 335.788 365.111 337.411C365.111 339.033 363.791 340.353 362.169 340.353Z"
    fill="#000" />
  <style>
    @media (prefers-color-scheme:dark){:root{filter:invert(100%)}}
  </style>
</svg>